# This file uses meters as units for non-parametric coordinates.

mtllib Cutting Board.mtl
g default
v 0.485405 -0.992679 57.104938
v 0.496040 -0.992679 4.616504
v 0.485405 0.992679 57.104938
v 0.496040 0.992679 4.616504
v -99.747951 0.992679 57.088007
v -99.737312 0.992679 4.599528
v -99.747951 -0.992679 57.088007
v -99.737312 -0.992679 4.599528
v 0.037883 1.456110 56.870490
v 0.048391 1.456110 4.850779
v -99.289749 1.456110 4.834028
v -99.300301 1.456110 56.853707
v -99.300301 -1.456110 56.853707
v -99.289749 -1.456110 4.834028
v 0.048391 -1.456110 4.850779
v 0.037883 -1.456110 56.870490
v -1.253513 1.970444 56.193833
v -1.243314 1.970444 5.526996
v -97.998335 1.970444 5.510648
v -98.008543 1.970444 56.177497
v -98.008543 -1.970444 56.177497
v -97.998335 -1.970444 5.510648
v -1.243314 -1.970444 5.526996
v -1.253513 -1.970444 56.193833
vt 0.417260 0.604860
vt 0.587890 0.422020
vt 0.594692 0.412592
vt 0.426644 0.610575
vt 0.436624 0.613931
vt 0.593040 0.402268
vt 0.221033 0.089346
vt 0.064616 0.301008
vt 0.062964 0.290685
vt 0.231012 0.092701
vt 0.240397 0.098416
vt 0.069767 0.281256
vt 0.079747 0.284612
vt 0.242048 0.108739
vt 0.577910 0.418665
vt 0.415608 0.594537
vt 0.594802 0.409355
vt 0.429631 0.611825
vt 0.228025 0.091451
vt 0.062855 0.293921
vt 0.240287 0.101653
vt 0.072754 0.282507
vt 0.584902 0.420770
vt 0.417369 0.601624
vt 0.239389 0.101939
vt 0.072541 0.283424
vt 0.058731 0.265217
vt 0.257179 0.092343
vt 0.061390 0.272019
vt 0.249974 0.091156
vt 0.237904 0.099061
vt 0.069324 0.283793
vt 0.062875 0.274897
vt 0.246756 0.091525
vt 0.772464 0.923878
vt 0.934766 0.748006
vt 0.418267 0.601338
vt 0.585115 0.419852
vt 0.400478 0.610934
vt 0.598925 0.438059
vt 0.596267 0.431257
vt 0.407683 0.612121
vt 0.419753 0.604215
vt 0.588332 0.419483
vt 0.594781 0.428380
vt 0.410900 0.611752
vn 0.983861 -0.178933 0.000199
vn 0.983861 -0.178933 0.000199
vn 0.983861 0.178933 0.000199
vn 0.983861 0.178933 0.000199
vn 0.000000 1.000000 0.000000
vn 0.000000 1.000000 0.000000
vn 0.000000 1.000000 0.000000
vn 0.000000 1.000000 0.000000
vn -0.983860 0.178942 -0.000199
vn -0.983860 0.178942 -0.000199
vn -0.983859 -0.178943 -0.000199
vn -0.983859 -0.178942 -0.000199
vn 0.000000 -1.000000 0.000000
vn 0.000000 -1.000000 0.000000
vn 0.000000 -1.000000 0.000000
vn 0.000000 -1.000000 0.000000
vn 0.000169 -0.094510 -0.995524
vn 0.000169 -0.094510 -0.995524
vn 0.000169 0.094510 -0.995524
vn 0.000169 0.094510 -0.995524
vn -0.000168 -0.094505 0.995524
vn -0.000168 -0.094505 0.995524
vn -0.000168 0.094505 0.995524
vn -0.000168 0.094505 0.995524
vn 0.719296 0.694704 0.000146
vn 0.719296 0.694704 0.000146
vn 0.000124 0.678599 -0.734509
vn 0.000124 0.678599 -0.734509
vn -0.719279 0.694722 -0.000146
vn -0.719279 0.694722 -0.000146
vn -0.000124 0.678600 0.734508
vn -0.000124 0.678599 0.734509
vn -0.719277 -0.694723 -0.000146
vn -0.719277 -0.694723 -0.000146
vn 0.000124 -0.678599 -0.734509
vn 0.000124 -0.678599 -0.734509
vn 0.719296 -0.694704 0.000146
vn 0.719296 -0.694704 0.000146
vn -0.000124 -0.678599 0.734509
vn -0.000124 -0.678600 0.734508
vn 0.369973 0.929043 0.000075
vn 0.369973 0.929043 0.000075
vn 0.369973 0.929043 0.000075
vn 0.369973 0.929043 0.000075
vn 0.000102 0.796017 -0.605274
vn 0.000102 0.796017 -0.605274
vn -0.369963 0.929047 -0.000075
vn -0.369963 0.929047 -0.000075
vn -0.369963 0.929047 -0.000075
vn -0.369963 0.929047 -0.000075
vn -0.000102 0.796023 0.605266
vn -0.000102 0.796023 0.605266
vn -0.369962 -0.929047 -0.000075
vn -0.369962 -0.929047 -0.000075
vn -0.369962 -0.929047 -0.000075
vn -0.369962 -0.929047 -0.000075
vn 0.000102 -0.796017 -0.605274
vn 0.000102 -0.796017 -0.605274
vn 0.369973 -0.929043 0.000075
vn 0.369973 -0.929043 0.000075
vn 0.369973 -0.929043 0.000075
vn 0.369973 -0.929043 0.000075
vn -0.000102 -0.796023 0.605266
vn -0.000102 -0.796023 0.605266
s 1
g pCube1
usemtl initialShadingGroup
f 1/43/1 2/2/2 4/45/3 3/4/4
s off
f 17/5/5 18/40/6 19/36/7 20/35/8
s 2
f 5/33/9 6/10/10 8/31/11 7/12/12
s off
f 21/13/13 22/14/14 23/15/15 24/16/16
s 3
f 2/44/17 8/11/18 6/34/19 4/3/20
s 4
f 7/32/21 1/1/22 3/46/23 5/9/24
s 1
f 3/4/4 4/45/3 10/41/25 9/18/26
s 3
f 4/3/20 6/34/19 11/30/27 10/17/28
s 2
f 6/10/10 5/33/9 12/29/29 11/19/30
s 4
f 5/9/24 3/46/23 9/42/31 12/20/32
s 2
f 7/12/12 8/31/11 14/25/33 13/22/34
s 3
f 8/11/18 2/44/17 15/38/35 14/21/36
s 1
f 2/2/2 1/43/1 16/37/37 15/23/38
s 4
f 1/1/22 7/32/21 13/26/39 16/24/40
s off
f 9/18/41 10/41/42 18/40/43 17/5/44
s 3
f 10/17/28 11/30/27 19/28/45 18/6/46
s off
f 11/19/47 12/29/48 20/27/49 19/7/50
s 4
f 12/20/32 9/42/31 17/39/51 20/8/52
s off
f 13/22/53 14/25/54 22/14/55 21/13/56
s 3
f 14/21/36 15/38/35 23/15/57 22/14/58
s off
f 15/23/59 16/37/60 24/16/61 23/15/62
s 4
f 16/24/40 13/26/39 21/13/63 24/16/64
